#!OML:ASF E:\motion texture\Top Level 1\Subject 1\Session 1\male.ASF
:FULLY-SPECIFIED
:DEGREES
236
root 4.87222 17.5931 4.44623 -347.004 -61.5087 353.956
lowerback 5.78726 5.22362 4.78439
upperback 1.70903 7.21287 2.64742
thorax -1.21408 3.56966 -0.399078
lowerneck -14.8775 -11.4756 -11.9412
upperneck 4.2453 -14.4799 13.8834
head 5.59899 -6.5695 4.75301
rclavicle 6.77856e-014 -1.98785e-014
rhumerus 29.932 14.3673 -52.7543
rradius 64.1445
rwrist -30.8698
rhand 7.59671 -46.6051
rfingers 7.12502
rthumb 32.8435 -73.6382
lclavicle 6.77856e-014 -1.98785e-014
lhumerus -28.9853 10.6819 73.9016
lradius 45.2887
lwrist 4.83686
lhand -9.74867 30.7723
lfingers 7.12502
lthumb 16.2257 60.1133
rfemur -32.4936 -11.452 20.4584
rtibia 21.7706
rfoot -1.17541 -26.7381
rtoes 21.6632
lfemur -15.2829 -12.8497 -7.44497
ltibia 42.3921
lfoot -9.35025 -9.78205
ltoes -19.1036
237
root 4.67524 17.6091 4.42288 -346.683 -61.363 353.46
lowerback 5.72429 5.26721 4.98113
upperback 1.60619 7.28395 2.68406
thorax -1.26281 3.60258 -0.471204
lowerneck -14.8279 -11.5278 -11.9398
upperneck 4.43762 -14.5787 13.8987
head 5.66484 -6.61345 4.7425
rclavicle -2.38542e-014 -4.77083e-015
rhumerus 30.6542 13.1475 -52.953
rradius 62.7033
rwrist -29.8097
rhand 6.48091 -47.0896
rfingers 7.12502
rthumb 31.7814 -74.3391
lclavicle -2.38542e-014 -4.77083e-015
lhumerus -29.3615 11.0765 73.4699
lradius 45.2505
lwrist 4.66796
lhand -9.62202 30.5484
lfingers 7.12502
lthumb 16.3476 59.8794
rfemur -32.0177 -11.4227 20.9778
rtibia 21.9527
rfoot -1.29227 -26.5077
rtoes 22.0271
lfemur -15.6146 -12.9833 -6.94718
ltibia 43.2933
lfoot -8.55421 -9.904
ltoes -19.3213
238
root 4.47917 17.6267 4.40009 -346.355 -61.2334 352.958
lowerback 5.66076 5.30723 5.17619
upperback 1.5042 7.34999 2.7211
thorax -1.31052 3.63275 -0.541445
lowerneck -14.7808 -11.5723 -11.9312
upperneck 4.63215 -14.6682 13.9098
head 5.7298 -6.65288 4.73079
rclavicle -6.54002e-014 -1.51076e-014
rhumerus 31.309 12.0002 -53.1974
rradius 61.3009
rwrist -28.6852
rhand 5.40825 -47.4859
rfingers 7.12502
rthumb 30.7593 -74.933
lclavicle -6.54002e-014 -1.51076e-014
lhumerus -29.7616 11.461 73.0597
lradius 45.215
lwrist 4.50853
lhand -9.50996 30.3398
lfingers 7.12502
lthumb 16.4555 59.6619
rfemur -31.527 -11.4079 21.5226
rtibia 22.152
rfoot -1.43334 -26.2387
rtoes 22.342
lfemur -15.9799 -13.1116 -6.46777
ltibia 44.1815
lfoot -7.77737 -9.99219
ltoes -19.4904
239
root 4.28377 17.6458 4.37785 -346.025 -61.124 352.453
lowerback 5.59581 5.34489 5.36432
upperback 1.40454 7.41212 2.7577
thorax -1.35576 3.66084 -0.607717
lowerneck -14.7372 -11.609 -11.9156
upperneck 4.82911 -14.7481 13.9173
head 5.79411 -6.68754 4.71812
rclavicle 4.77083e-015 1.35174e-014
rhumerus 31.893 10.9301 -53.4811
rradius 59.9531
rwrist -27.5034
rhand 4.39981 -47.7986
rfingers 7.12502
rthumb 29.7973 -75.4224
lclavicle 4.77083e-015 1.35174e-014
lhumerus -30.1845 11.8342 72.6692
lradius 45.1794
lwrist 4.35649
lhand -9.40863 30.143
lfingers 7.12502
lthumb 16.5531 59.4569
rfemur -31.0141 -11.3981 22.0847
rtibia 22.3542
rfoot -1.59336 -25.9377
rtoes 22.6035
lfemur -16.3682 -13.2292 -6.01159
ltibia 45.0444
lfoot -7.03105 -10.0478
ltoes -19.5995
240
root 4.08933 17.6663 4.35625 -345.689 -61.0329 351.948
lowerback 5.52829 5.3804 5.54662
upperback 1.30564 7.47072 2.79412
thorax -1.39942 3.68699 -0.67038
lowerneck -14.6961 -11.6386 -11.8946
upperneck 5.02836 -14.8192 13.9205
head 5.85768 -6.7179 4.70444
rclavicle -5.52621e-014 -2.14687e-014
rhumerus 32.4005 9.94199 -53.7908
rradius 58.6751
rwrist -26.2796
rhand 3.45316 -48.0332
rfingers 7.12502
rthumb 28.8935 -75.8152
lclavicle -5.52621e-014 -2.14687e-014
lhumerus -30.6281 12.1983 72.3007
lradius 45.1386
lwrist 4.20474
lhand -9.31742 29.9562
lfingers 7.12502
lthumb 16.6409 59.2628
rfemur -30.4822 -11.3912 22.6601
rtibia 22.5518
rfoot -1.77715 -25.6143
rtoes 22.831
lfemur -16.7826 -13.3347 -5.57888
ltibia 45.8777
lfoot -6.32687 -10.0716
ltoes -19.6761
241
root 3.89588 17.688 4.33538 -345.349 -60.9619 351.441
lowerback 5.45724 5.41374 5.72264
upperback 1.20863 7.52557 2.82952
thorax -1.43982 3.7112 -0.72986
lowerneck -14.6576 -11.661 -11.869
upperneck 5.22912 -14.8813 13.9213
head 5.9205 -6.74383 4.69051
rclavicle 6.48038e-014 1.66979e-014
rhumerus 32.8309 9.04206 -54.1158
rradius 57.4789
rwrist -25.0303
rhand 2.57203 -48.201
rfingers 7.12502
rthumb 28.0515 -76.1239
lclavicle 6.48038e-014 1.66979e-014
lhumerus -31.0905 12.5537 71.9521
lradius 45.0893
lwrist 4.05035
lhand -9.23808 29.7789
lfingers 7.12502
lthumb 16.7173 59.0791
rfemur -29.9285 -11.3814 23.2431
rtibia 22.7354
rfoot -1.98304 -25.2746
rtoes 23.023
lfemur -17.2173 -13.427 -5.17228
ltibia 46.6726
lfoot -5.67305 -10.0631
ltoes -19.7147
242
root 3.70342 17.7109 4.31531 -345.005 -60.9119 350.936
lowerback 5.38141 5.44587 5.89053
upperback 1.11381 7.5777 2.86427
thorax -1.47619 3.73404 -0.784702
lowerneck -14.6213 -11.6764 -11.8379
upperneck 5.43079 -14.9344 13.9177
head 5.98208 -6.76542 4.67565
rclavicle 9.34288e-015 2.38542e-015
rhumerus 33.1796 8.23444 -54.4452
rradius 56.3769
rwrist -23.7693
rhand 1.74496 -48.3128
rfingers 7.12502
rthumb 27.2607 -76.3626
lclavicle 9.34288e-015 2.38542e-015
lhumerus -31.5698 12.9021 71.6233
lradius 45.0277
lwrist 3.885
lhand -9.19742 29.623
lfingers 7.12502
lthumb 16.7564 58.9199
rfemur -29.3508 -11.3642 23.8289
rtibia 22.8955
rfoot -2.20714 -24.9234
rtoes 23.1745
lfemur -17.6673 -13.5042 -4.79382
ltibia 47.4204
lfoot -5.07549 -10.0235
ltoes -19.7173
243
root 3.51212 17.7348 4.29616 -344.659 -60.8826 350.435
lowerback 5.29987 5.47669 6.05014
upperback 1.02094 7.62687 2.89735
thorax -1.50821 3.75544 -0.835771
lowerneck -14.5879 -11.6851 -11.8033
upperneck 5.63382 -14.9788 13.9109
head 6.04293 -6.78277 4.6604
rclavicle -6.30147e-014 -1.27222e-014
rhumerus 33.4438 7.52195 -54.7711
rradius 55.3773
rwrist -22.5098
rhand 0.979862 -48.3817
rfingers 7.12502
rthumb 26.5286 -76.5442
lclavicle -6.30147e-014 -1.27222e-014
lhumerus -32.0628 13.2446 71.3146
lradius 44.9501
lwrist 3.70542
lhand -9.15169 29.4694
lfingers 7.12502
lthumb 16.8004 58.7626
rfemur -28.7491 -11.3347 24.4107
rtibia 23.0233
rfoot -2.44607 -24.5668
rtoes 23.2912
lfemur -18.132 -13.565 -4.44662
ltibia 48.1163
lfoot -4.54103 -9.95232
ltoes -19.6981
244
root 3.3221 17.7596 4.27798 -344.31 -60.8746 349.939
lowerback 5.21197 5.50668 6.20061
upperback 0.929778 7.67361 2.92871
thorax -1.53587 3.77568 -0.882633
lowerneck -14.5565 -11.6874 -11.766
upperneck 5.83762 -15.0146 13.9009
head 6.10281 -6.79599 4.64496
rclavicle 1.12313e-013 4.53229e-014
rhumerus 33.6203 6.90671 -55.0854
rradius 54.4868
rwrist -21.2656
rhand 0.258922 -48.4209
rfingers 7.12502
rthumb 25.8384 -76.6858
lclavicle 1.12313e-013 4.53229e-014
lhumerus -32.5687 13.5822 71.0259
lradius 44.8538
lwrist 3.51001
lhand -9.10922 29.317
lfingers 7.12502
lthumb 16.8413 58.6066
rfemur -28.1239 -11.2895 24.9847
rtibia 23.1137
rfoot -2.70097 -24.2067
rtoes 23.3767
lfemur -18.6097 -13.6054 -4.13195
ltibia 48.7549
lfoot -4.07273 -9.84759
ltoes -19.6567
245
root 3.13333 17.7851 4.26082 -343.96 -60.8886 349.452
lowerback 5.11667 5.53589 6.34122
upperback 0.840216 7.71785 2.95687
thorax -1.55861 3.7948 -0.926302
lowerneck -14.5263 -11.6832 -11.7252
upperneck 6.04169 -15.0419 13.8872
head 6.16135 -6.8052 4.62911
rclavicle -3.79679e-014 -1.35174e-014
rhumerus 33.706 6.39016 -55.3831
rradius 53.7109
rwrist -20.049
rhand -0.41705 -48.4389
rfingers 7.12502
rthumb 25.1909 -76.7964
lclavicle -3.79679e-014 -1.35174e-014
lhumerus -33.0856 13.9152 70.7542
lradius 44.736
lwrist 3.29654
lhand -9.06432 29.1653
lfingers 7.12502
lthumb 16.8845 58.4513
rfemur -27.4738 -11.2236 25.5451
rtibia 23.1595
rfoot -2.97099 -23.8473
rtoes 23.4356
lfemur -19.095 -13.6243 -3.85299
ltibia 49.3283
lfoot -3.67309 -9.70602
ltoes -19.5979
246
root 2.94585 17.811 4.24474 -343.612 -60.9251 348.976
lowerback 5.01317 5.56405 6.47012
upperback 0.753043 7.75899 2.98231
thorax -1.57553 3.81257 -0.965152
lowerneck -14.4993 -11.6721 -11.6844
upperneck 6.2465 -15.0594 13.8721
head 6.2193 -6.80966 4.61411
rclavicle -2.0276e-014 -4.77083e-015
rhumerus 33.702 5.9769 -55.6551
rradius 53.053
rwrist -18.8752
rhand -1.05633 -48.4478
rfingers 7.12502
rthumb 24.5782 -76.89
lclavicle -2.0276e-014 -4.77083e-015
lhumerus -33.611 14.2492 70.4991
lradius 44.5932
lwrist 3.05815
lhand -9.01002 29.0044
lfingers 7.12502
lthumb 16.9368 58.2859
rfemur -26.7982 -11.1347 26.0887
rtibia 23.1548
rfoot -3.25464 -23.4915
rtoes 23.469
lfemur -19.5846 -13.6196 -3.61208
ltibia 49.8302
lfoot -3.34251 -9.52671
ltoes -19.527
